<svg xmlns="http://www.w3.org/2000/svg" width="244" height="64" viewBox="0 0 244 64" role="img" aria-labelledby="title desc">
  <title id="title">HOYANG</title>
  <desc id="desc">HO 원형 심볼과 YANG 워드마크, 25주년 배지로 구성된 로고</desc>
  <circle cx="32" cy="32" r="32" fill="#302f3b"/>
  <path fill="#fff" d="M7 14h8v13h10V14h8v36h-8V35H15v15H7z"/>
  <path fill="#fff" fill-rule="evenodd" d="M47 13c9.4 0 16 7.8 16 19s-6.6 19-16 19-16-7.8-16-19 6.6-19 16-19Zm0 8c-4.7 0-8 4.5-8 11s3.3 11 8 11 8-4.5 8-11-3.3-11-8-11Z"/>
  <text x="61" y="46" fill="#302f3b" font-family="Arial, Helvetica, sans-serif" font-size="41" font-weight="700" letter-spacing="-1.8">YANG</text>
  <circle cx="220" cy="32" r="22" fill="#e3071b"/>
  <text x="202.5" y="40.5" fill="#fff" font-family="Arial, Helvetica, sans-serif" font-size="25" font-weight="700" letter-spacing="-1.6">25</text>
  <text x="228.5" y="39.5" fill="#fff" font-family="Arial, Helvetica, sans-serif" font-size="6.5" font-weight="700">TH</text>
</svg>
